<svg width="41" height="40" viewBox="0 0 41 40" fill="none" xmlns="http://www.w3.org/2000/svg">
<path d="M4.11635 0.241699C2.13154 0.241699 0.523926 1.84931 0.523926 3.83413V36.166C0.523926 38.1508 2.13154 39.7584 4.11635 39.7584H36.4482C38.433 39.7584 40.0406 38.1508 40.0406 36.166V3.83413C40.0406 1.84931 38.433 0.241699 36.4482 0.241699H4.11635ZM24.7728 12.8152H29.3651C29.8608 12.8152 30.2632 13.2175 30.2632 13.7133C30.2632 14.2091 29.8608 14.6114 29.3651 14.6114H24.7728C24.2771 14.6114 23.8747 14.2091 23.8747 13.7133C23.8747 13.2175 24.2771 12.8152 24.7728 12.8152ZM9.36116 13.5063H14.3639C17.3169 13.5063 19.079 14.951 19.079 17.3022C19.079 18.9152 17.8859 20.3226 16.325 20.5543V20.7438C18.3403 20.8911 19.8052 22.4098 19.8052 24.3713C19.807 27.0387 17.7922 28.7285 14.5428 28.7285H9.36116C8.44868 28.7285 7.70878 27.9886 7.70878 27.0761V15.1587C7.70878 14.2462 8.44868 13.5063 9.36116 13.5063ZM10.8943 15.941V19.8141H13.2869C15.0076 19.8159 15.9461 19.1078 15.9461 17.8846C15.9461 16.6721 15.0731 15.941 13.5535 15.941H10.8943ZM27.4005 16.8391C30.8294 16.8391 32.8523 19.0242 32.8523 22.7154V23.6521H24.871V23.81C24.9124 25.5397 25.9263 26.6166 27.5303 26.6166C28.7427 26.6166 29.5749 26.1855 29.9018 25.4168H32.761C32.2976 27.6117 30.2914 28.9811 27.4426 28.9811C23.8986 28.9811 21.8119 26.7437 21.8119 22.968C21.8119 19.1816 23.941 16.8391 27.4005 16.8391ZM27.4145 19.1932C25.9901 19.1932 24.9857 20.1822 24.8816 21.691H29.8387C29.774 20.1517 28.8479 19.1932 27.4145 19.1932ZM10.8943 21.9682V26.2938H13.7324C15.5681 26.2938 16.56 25.5203 16.56 24.0977C16.56 22.7038 15.5358 21.9682 13.6587 21.9682H10.8943Z" fill="#3A5860"/>
</svg>
