<svg width="40" height="40" viewBox="0 0 40 40" fill="none" xmlns="http://www.w3.org/2000/svg">
<path d="M19.8005 0.23999C8.88807 0.23999 0.0405273 9.22607 0.0405273 20.3094C0.0405273 29.7136 6.41642 37.5825 15.012 39.76C14.9198 39.4891 14.8605 39.1746 14.8605 38.785V35.3548C14.0586 35.3548 12.7149 35.3548 12.3774 35.3548C11.0254 35.3548 9.82337 34.7644 9.24045 33.6673C8.59331 32.448 8.48134 30.5833 6.87749 29.4426C6.4016 29.063 6.76387 28.6298 7.31221 28.6884C8.32491 28.9794 9.16471 29.6852 9.95511 30.7321C10.7422 31.7807 11.1127 32.0182 12.5832 32.0182C13.2962 32.0182 14.3632 31.9764 15.3677 31.8159C15.9078 30.4227 16.8415 29.1399 17.9826 28.5345C11.4025 27.8471 8.26233 24.5223 8.26233 20.0084C8.26233 18.065 9.07743 16.1851 10.4623 14.6013C10.0078 13.0292 9.43641 9.82313 10.6368 8.60224C13.5975 8.60224 15.3875 10.5523 15.8172 11.0791C17.2927 10.5657 18.913 10.2747 20.6156 10.2747C22.3216 10.2747 23.9485 10.5657 25.4272 11.0825C25.852 10.559 27.6436 8.60224 30.6109 8.60224C31.8163 9.8248 31.2383 13.0443 30.7789 14.613C32.1555 16.1935 32.9656 18.0683 32.9656 20.0084C32.9656 24.519 29.8304 27.8421 23.2602 28.5328C25.0682 29.4911 26.3872 32.1838 26.3872 34.2125V38.785C26.3872 38.9589 26.3493 39.0843 26.3296 39.2332C34.0294 36.492 39.5605 29.0663 39.5605 20.3094C39.5605 9.22607 30.713 0.23999 19.8005 0.23999Z" fill="#3A5860"/>
</svg>
