<svg width="41" height="42" viewBox="0 0 41 42" fill="none" xmlns="http://www.w3.org/2000/svg">
<path d="M11.3355 0.79248C5.13628 0.79248 0.109131 5.81963 0.109131 12.0188V29.981C0.109131 36.1801 5.13628 41.2073 11.3355 41.2073H29.2976C35.4968 41.2073 40.5239 36.1801 40.5239 29.981V12.0188C40.5239 5.81963 35.4968 0.79248 29.2976 0.79248H11.3355ZM33.7881 5.28301C35.0275 5.28301 36.0334 6.28889 36.0334 7.52828C36.0334 8.76767 35.0275 9.77355 33.7881 9.77355C32.5488 9.77355 31.5429 8.76767 31.5429 7.52828C31.5429 6.28889 32.5488 5.28301 33.7881 5.28301ZM20.3165 9.77355C26.5157 9.77355 31.5429 14.8007 31.5429 20.9999C31.5429 27.1991 26.5157 32.2262 20.3165 32.2262C14.1174 32.2262 9.0902 27.1991 9.0902 20.9999C9.0902 14.8007 14.1174 9.77355 20.3165 9.77355ZM20.3165 14.2641C18.5301 14.2641 16.8168 14.9737 15.5536 16.237C14.2904 17.5002 13.5807 19.2134 13.5807 20.9999C13.5807 22.7863 14.2904 24.4996 15.5536 25.7628C16.8168 27.026 18.5301 27.7357 20.3165 27.7357C22.103 27.7357 23.8163 27.026 25.0795 25.7628C26.3427 24.4996 27.0523 22.7863 27.0523 20.9999C27.0523 19.2134 26.3427 17.5002 25.0795 16.237C23.8163 14.9737 22.103 14.2641 20.3165 14.2641Z" fill="#3A5860"/>
</svg>
