<svg width="38" height="38" viewBox="0 0 38 38" fill="none" xmlns="http://www.w3.org/2000/svg">
<path d="M19.084 0.476562C29.314 0.476562 37.6075 8.77002 37.6075 19C37.6075 29.23 29.314 37.5235 19.084 37.5235C8.854 37.5235 0.560547 29.23 0.560547 19C0.560547 8.77002 8.854 0.476562 19.084 0.476562ZM25.4738 26.5508C25.8139 25.506 27.4111 15.0874 27.6073 13.0338C27.6671 12.4124 27.4701 11.999 27.0861 11.8138C26.6205 11.5906 25.9318 11.7018 25.1311 11.9906C24.034 12.3863 10.0109 18.3399 9.2009 18.6851C8.43301 19.0118 7.70639 19.3671 7.70639 19.8832C7.70639 20.2461 7.92194 20.4499 8.51469 20.6612C9.13101 20.881 10.6845 21.3517 11.6031 21.6051C12.4871 21.8493 13.4916 21.6371 14.0557 21.2868C14.6527 20.9155 21.5501 16.3015 22.0444 15.8965C22.5386 15.4923 22.9335 16.0102 22.5294 16.4152C22.1252 16.8193 17.3916 21.414 16.7669 22.0505C16.0083 22.8226 16.5463 23.6233 17.0557 23.9441C17.6358 24.3104 21.812 27.1108 22.441 27.5604C23.0699 28.01 23.7073 28.2138 24.2916 28.2138C24.8759 28.2129 25.1833 27.4433 25.4738 26.5508Z" fill="#3A5860"/>
</svg>
