<svg width="44" height="44" viewBox="0 0 44 44" fill="none" xmlns="http://www.w3.org/2000/svg">
<path d="M21.5546 0.445557C9.65106 0.445557 0 10.0966 0 22.0001C0 33.9036 9.65106 43.5547 21.5546 43.5547C33.4581 43.5547 43.1091 33.9036 43.1091 22.0001C43.1091 10.0966 33.4581 0.445557 21.5546 0.445557ZM32.9803 29.1257L29.625 29.1724C29.625 29.1724 28.9011 29.3143 27.9545 28.6605C26.6989 27.7983 25.5152 25.5548 24.592 25.8458C23.6561 26.144 23.6849 28.1629 23.6849 28.1629C23.6849 28.1629 23.6921 28.5186 23.4783 28.7503C23.2466 29 22.7922 28.9748 22.7922 28.9748H21.2887C21.2887 28.9748 17.9729 29.2496 15.0505 26.2033C11.8676 22.8821 9.05471 16.3277 9.05471 16.3277C9.05471 16.3277 8.88946 15.9145 9.06549 15.7026C9.26487 15.4691 9.80194 15.4619 9.80194 15.4619L13.3944 15.4439C13.3944 15.4439 13.7321 15.5032 13.9763 15.6828C14.1757 15.8301 14.2889 16.1067 14.2889 16.1067C14.2889 16.1067 14.8691 17.5778 15.6396 18.9106C17.1413 21.508 17.8382 22.0774 18.3483 21.7989C19.092 21.393 18.8692 18.1275 18.8692 18.1275C18.8692 18.1275 18.8836 16.942 18.4956 16.4139C18.1938 16.0026 17.6262 15.8804 17.3784 15.8499C17.1754 15.8229 17.5059 15.3523 17.937 15.1404C18.5836 14.8242 19.726 14.8063 21.075 14.8189C22.1258 14.8296 22.4293 14.8943 22.8389 14.9949C24.0782 15.2949 23.6579 16.4516 23.6579 19.2268C23.6579 20.1159 23.4981 21.3661 24.1375 21.7774C24.4141 21.9552 25.0877 21.8043 26.7672 18.9412C27.5665 17.5832 28.1646 15.9882 28.1646 15.9882C28.1646 15.9882 28.2958 15.7044 28.4987 15.5822C28.7071 15.4565 28.9873 15.496 28.9873 15.496L32.7683 15.4727C32.7683 15.4727 33.9035 15.3362 34.0885 15.8517C34.2825 16.3905 33.6646 17.6497 32.1199 19.7099C29.5836 23.094 29.3016 22.7797 31.4086 24.7376C33.4203 26.6074 33.8353 27.5163 33.9053 27.6313C34.737 29.0161 32.9803 29.1257 32.9803 29.1257Z" fill="#3A5860"/>
</svg>
